<svg xmlns="http://www.w3.org/2000/svg" version="1.1" xmlns:xlink="http://www.w3.org/1999/xlink" xmlns:svgjs="http://svgjs.com/svgjs" width="1440" height="560" preserveAspectRatio="none" viewBox="0 0 1440 560"><g mask="url(&quot;#SvgjsMask1000&quot;)" fill="none"><rect width="1440" height="560" x="0" y="0" fill="#0e2a47"></rect><path d="M 0,88 C 57.6,119.4 172.8,242.8 288,245 C 403.2,247.2 460.8,109.2 576,99 C 691.2,88.8 748.8,206 864,194 C 979.2,182 1036.8,38.6 1152,39 C 1267.2,39.4 1382.4,164.6 1440,196L1440 560L0 560z" fill="#184a7e"></path><path d="M 0,526 C 96,501.8 288,403.8 480,405 C 672,406.2 768,543.2 960,532 C 1152,520.8 1344,385.6 1440,349L1440 560L0 560z" fill="#2264ab"></path></g><defs><mask id="SvgjsMask1000"><rect width="1440" height="560" fill="#ffffff"></rect></mask></defs></svg>